<svg xmlns="http://www.w3.org/2000/svg" viewBox="0 0 64 64" id="graphic-design"><path fill="#00459a" d="M52 25h10v10H52zM27 2h10v10H27zM2 25h10v10H2z"></path><circle cx="57" cy="7" r="5" fill="#bedcff"></circle><circle cx="7" cy="7" r="5" fill="#bedcff"></circle><path fill="#fff" d="m45.26 41-6.16 5H24.9l-6.16-5L32 18l13.26 23z"></path><path fill="#fbcb00" d="M25 51h14v11H25z"></path><path fill="#ff9909" d="M22 46h20v5H22z"></path><path d="M57 14a7 7 0 1 0-6.71-9H39V2a2 2 0 0 0-2-2H27a2 2 0 0 0-2 2v3H13.71a7 7 0 1 0 0 4h4.12A26.87 26.87 0 0 0 6.55 23H2a2 2 0 0 0-2 2v10a2 2 0 0 0 2 2h10a2 2 0 0 0 2-2V25a2 2 0 0 0-2-2h-1.16A22.84 22.84 0 0 1 25 10.1V12a2 2 0 0 0 2 2h10a2 2 0 0 0 2-2v-1.9A22.84 22.84 0 0 1 53.16 23H52a2 2 0 0 0-2 2v10a2 2 0 0 0 2 2h10a2 2 0 0 0 2-2V25a2 2 0 0 0-2-2h-4.55A26.87 26.87 0 0 0 46.17 9h4.12A7 7 0 0 0 57 14Zm0-10a3 3 0 1 1-3 3 3 3 0 0 1 3-3ZM7 10a3 3 0 1 1 3-3 3 3 0 0 1-3 3Zm3 23H4v-6h6Zm50 0h-6v-6h6ZM35 10h-6V4h6Z"></path><path d="M47 40 33.73 17a2 2 0 0 0-3.46 0L17 40a2 2 0 0 0 .47 2.55l2.86 2.33A2 2 0 0 0 20 46v5a2 2 0 0 0 2 2h1v9a2 2 0 0 0 2 2h14a2 2 0 0 0 2-2v-9h1a2 2 0 0 0 2-2v-5a2 2 0 0 0-.34-1.12l2.86-2.33A2 2 0 0 0 47 40ZM30 25.47V37h4V25.47l8.68 15.05L38.39 44H25.61l-4.29-3.48ZM40 49H24v-1h16Zm-3 11H27v-7h10Z"></path></svg>